<svg id="svg" version="1.1" width="1448" height="1449" xmlns="http://www.w3.org/2000/svg" xmlns:xlink="http://www.w3.org/1999/xlink" ><g id="svgg"><path id="path0" d="M194.613 0.149 C 194.461 0.207,190.608 0.574,186.050 0.966 C 163.623 2.893,149.849 5.723,132.459 11.980 C 13.250 54.865,-36.447 194.745,28.788 303.772 C 30.621 306.834,32.412 309.693,32.770 310.126 L 33.421 310.912 47.650 296.612 C 58.959 285.247,61.878 282.169,61.878 281.611 C 61.878 281.224,60.831 278.957,59.551 276.573 C 22.143 206.888,39.883 122.380,102.103 73.868 C 151.791 35.126,219.911 29.557,275.984 59.654 C 278.634 61.076,280.973 62.155,281.407 62.155 C 282.189 62.155,310.612 34.185,310.419 33.606 C 310.375 33.474,308.728 32.339,306.758 31.085 C 281.958 15.290,253.869 5.334,223.757 1.666 C 214.745 0.568,196.065 -0.404,194.613 0.149 M338.536 85.089 C 308.679 88.268,295.383 124.010,315.931 145.852 C 338.193 169.518,378.030 153.572,378.030 120.994 C 378.030 99.488,359.712 82.834,338.536 85.089 M250.138 200.274 C 204.086 200.408,202.031 200.436,201.105 200.924 C 198.814 202.133,60.221 341.215,60.221 342.305 C 60.221 345.056,80.170 361.285,95.028 370.621 C 140.826 399.400,200.190 407.833,253.867 393.183 C 308.040 378.398,357.354 336.796,380.909 286.008 C 392.566 260.874,399.988 228.607,399.999 203.014 L 400.000 200.366 390.839 200.183 C 381.468 199.996,335.454 200.026,250.138 200.274 " stroke="none" fill="currentColor" fill-rule="evenodd"></path></g></svg>
